<?xml version="1.0" encoding="UTF-8"?>
<svg width="14px" height="14px" viewBox="0 0 14 14" version="1.1" xmlns="http://www.w3.org/2000/svg" xmlns:xlink="http://www.w3.org/1999/xlink">
    <!-- Generator: Sketch 54 (76480) - https://sketchapp.com -->
    <title>icon/商品</title>
    <desc>Created with Sketch.</desc>
    <g id="icon/商品" stroke="none" stroke-width="1" fill="none" fill-rule="evenodd">
        <g id="商品" fill-rule="nonzero">
            <rect id="矩形" fill="#000000" opacity="0" x="0" y="0" width="14" height="14"></rect>
            <path d="M11.965625,3.01875 L7.809375,0.875 C7.30625,0.6125 6.69375,0.6125 6.190625,0.875 L2.034375,3.040625 C1.465625,3.303125 1.09375,3.915625 1.09375,4.571875 L1.09375,9.45 C1.09375,10.10625 1.465625,10.696875 2.034375,11.003125 L6.2125,13.16875 C6.453125,13.3 6.7375,13.365625 7.021875,13.365625 C7.30625,13.365625 7.56875,13.3 7.83125,13.16875 L11.965625,11.025 C12.55625,10.71875 12.90625,10.128125 12.90625,9.471875 L12.90625,4.571875 C12.90625,3.915625 12.534375,3.303125 11.965625,3.01875 Z M6.60625,1.640625 C6.7375,1.575 6.86875,1.53125 7,1.53125 C7.13125,1.53125 7.284375,1.553125 7.39375,1.61875 L11.55,3.7625 C11.615625,3.784375 11.659375,3.828125 11.725,3.871875 L7,6.321875 L2.275,3.915625 C2.31875,3.871875 2.384375,3.828125 2.45,3.80625 L6.60625,1.640625 Z M2.45,10.215625 C2.14375,10.0625 1.96875,9.75625 1.96875,9.428125 L1.96875,4.725 L3.71875,5.621875 L3.71875,7.590625 C3.71875,7.765625 3.80625,7.91875 3.959375,7.984375 L4.265625,8.1375 C4.2875,8.159375 4.33125,8.159375 4.353125,8.159375 C4.484375,8.159375 4.571875,8.071875 4.571875,7.940625 L4.571875,6.059375 L6.540625,7.065625 L6.540625,12.3375 L2.45,10.215625 Z M11.55,10.215625 L7.4375,12.359375 L7.4375,7.065625 L12.03125,4.725 L12.03125,9.428125 C12.03125,9.75625 11.85625,10.0625 11.55,10.215625 L11.55,10.215625 Z" id="形状" fill="#FFFFFF"></path>
        </g>
    </g>
</svg>