<?xml version="1.0" encoding="utf-8"?>
<!-- Generator: Adobe Illustrator 23.0.2, SVG Export Plug-In . SVG Version: 6.00 Build 0)  -->
<svg version="1.1" id="图层_1" xmlns="http://www.w3.org/2000/svg" xmlns:xlink="http://www.w3.org/1999/xlink" x="0px" y="0px"
	 viewBox="0 0 200 200" style="enable-background:new 0 0 200 200;" xml:space="preserve">
<style type="text/css">
	.st0{opacity:0.28;fill:url(#SVGID_1_);enable-background:new    ;}
	.st1{opacity:8.000000e-02;fill:url(#SVGID_2_);enable-background:new    ;}
	.st2{opacity:0.28;fill:url(#SVGID_3_);enable-background:new    ;}
	.st3{fill:url(#SVGID_4_);}
	.st4{fill:url(#SVGID_5_);}
	.st5{fill:url(#SVGID_6_);}
	.st6{fill:url(#SVGID_7_);}
	.st7{fill:#FFFAE3;}
	.st8{fill:#FFFFFF;}
</style>
<title>Group 28 Copy 5</title>
<desc>Created with Sketch.</desc>
<linearGradient id="SVGID_1_" gradientUnits="userSpaceOnUse" x1="65.6615" y1="117.5545" x2="100.3618" y2="117.5545" gradientTransform="matrix(1 0 0 -1 0 202)">
	<stop  offset="0" style="stop-color:#E7C568"/>
	<stop  offset="1" style="stop-color:#49463F"/>
</linearGradient>
<polygon class="st0" points="100.4,91.8 65.7,68.9 65.7,77.2 100.4,100 "/>
<linearGradient id="SVGID_2_" gradientUnits="userSpaceOnUse" x1="2.6892" y1="50.1996" x2="198.0108" y2="50.1996" gradientTransform="matrix(1 0 0 -1 0 202)">
	<stop  offset="0" style="stop-color:#E7C568"/>
	<stop  offset="1" style="stop-color:#49463F"/>
</linearGradient>
<polygon class="st1" points="100.4,174.4 12.1,113.5 2.7,122.9 100.4,190.1 198,122.9 188.6,113.5 "/>
<linearGradient id="SVGID_3_" gradientUnits="userSpaceOnUse" x1="151.4912" y1="94.522" x2="176.8359" y2="94.522" gradientTransform="matrix(1 0 0 -1 0 202)">
	<stop  offset="0" style="stop-color:#E7C568"/>
	<stop  offset="1" style="stop-color:#49463F"/>
</linearGradient>
<polygon class="st2" points="151.5,110.1 151.5,118.3 176.8,101.6 171.9,96.6 "/>
<linearGradient id="SVGID_4_" gradientUnits="userSpaceOnUse" x1="100.4258" y1="92.4763" x2="198.0108" y2="92.4763" gradientTransform="matrix(1 0 0 -1 0 202)">
	<stop  offset="0" style="stop-color:#E7C568"/>
	<stop  offset="1" style="stop-color:#F3E068"/>
</linearGradient>
<polygon class="st3" points="186.2,95.4 151.5,118.3 151.5,110.1 181.3,90.4 135.6,44.7 100.4,68.9 100.4,91.8 100.4,100 
	100.4,174.4 198,106.9 186.2,95.1 "/>
<linearGradient id="SVGID_5_" gradientUnits="userSpaceOnUse" x1="2.6892" y1="92.4763" x2="100.4258" y2="92.4763" gradientTransform="matrix(1 0 0 -1 0 202)">
	<stop  offset="0" style="stop-color:#E7C568"/>
	<stop  offset="1" style="stop-color:#F3E068"/>
</linearGradient>
<polygon class="st4" points="65.7,77.2 65.7,68.9 100.4,91.8 100.4,68.9 65.1,44.7 29.8,79.8 43.5,88.8 43.5,96.9 24.8,84.8 
	2.7,106.9 100.4,174.4 100.4,100 "/>
<linearGradient id="SVGID_6_" gradientUnits="userSpaceOnUse" x1="100.3508" y1="162.8618" x2="135.6402" y2="162.8618" gradientTransform="matrix(1 0 0 -1 0 202)">
	<stop  offset="0" style="stop-color:#F8BA4B"/>
	<stop  offset="1" style="stop-color:#E6C84D"/>
</linearGradient>
<polygon class="st5" points="100.4,68.9 135.6,44.7 100.4,9.4 "/>
<linearGradient id="SVGID_7_" gradientUnits="userSpaceOnUse" x1="65.0612" y1="162.8618" x2="100.3676" y2="162.8618" gradientTransform="matrix(1 0 0 -1 0 202)">
	<stop  offset="0" style="stop-color:#F8BA4B"/>
	<stop  offset="1" style="stop-color:#E6C84D"/>
</linearGradient>
<polygon class="st6" points="100.4,9.4 65.1,44.7 100.4,68.9 "/>
<polygon class="st7" points="65.7,77.2 100.4,100 100.4,91.8 65.7,68.9 "/>
<polygon class="st8" points="151.5,118.3 186.2,95.4 186.2,95.1 181.3,90.4 151.5,110.1 "/>
<polygon class="st8" points="29.8,79.8 24.8,84.8 43.5,96.9 43.5,88.8 "/>
</svg>
